# MagicaVoxel @ Ephtracy

# material
mtllib WheelSpacer.mtl
usemtl palette

# normals
vn -1 0 0
vn 1 0 0
vn 0 0 1
vn 0 0 -1
vn 0 -1 0
vn 0 1 0

# texcoords
vt 0.958984 0.5
vt 0.970703 0.5
vt 0.986328 0.5
vt 0.994141 0.5

# verts
v -4.5 0 12.5
v -4.5 0 -12.5
v -4.5 5 22.5
v -4.5 5 12.5
v -4.5 5 7.5
v -4.5 5 -7.5
v -4.5 5 -12.5
v -4.5 5 -22.5
v -4.5 10 27.5
v -4.5 10 22.5
v -4.5 10 17.5
v -4.5 10 7.5
v -4.5 10 -7.5
v -4.5 10 -17.5
v -4.5 10 -22.5
v -4.5 10 -27.5
v -4.5 15 22.5
v -4.5 15 17.5
v -4.5 15 -17.5
v -4.5 15 -22.5
v -4.5 20 32.5
v -4.5 20 27.5
v -4.5 20 -27.5
v -4.5 20 -32.5
v -4.5 25 27.5
v -4.5 25 22.5
v -4.5 25 -22.5
v -4.5 25 -27.5
v -4.5 40 27.5
v -4.5 40 22.5
v -4.5 41 -22.5
v -4.5 41 -27.5
v -4.5 45 32.5
v -4.5 45 27.5
v -4.5 45 -27.5
v -4.5 45 -32.5
v -4.5 50 22.5
v -4.5 50 17.5
v -4.5 50 -17.5
v -4.5 50 -22.5
v -4.5 55 27.5
v -4.5 55 22.5
v -4.5 55 17.5
v -4.5 55 7.5
v -4.5 55 -7.5
v -4.5 55 -17.5
v -4.5 55 -22.5
v -4.5 55 -27.5
v -4.5 60 22.5
v -4.5 60 12.5
v -4.5 60 7.5
v -4.5 60 2.5
v -4.5 60 -2.5
v -4.5 60 -7.5
v -4.5 60 -12.5
v -4.5 60 -22.5
v -4.5 65 12.5
v -4.5 65 2.5
v -4.5 65 -2.5
v -4.5 65 -12.5
v 4.5 0 12.5
v 4.5 0 -12.5
v 4.5 5 22.5
v 4.5 5 12.5
v 4.5 5 7.5
v 4.5 5 -7.5
v 4.5 5 -12.5
v 4.5 5 -22.5
v 4.5 10 27.5
v 4.5 10 22.5
v 4.5 10 17.5
v 4.5 10 7.5
v 4.5 10 -7.5
v 4.5 10 -17.5
v 4.5 10 -22.5
v 4.5 10 -27.5
v 4.5 15 22.5
v 4.5 15 17.5
v 4.5 15 -17.5
v 4.5 15 -22.5
v 4.5 20 32.5
v 4.5 20 27.5
v 4.5 20 -27.5
v 4.5 20 -32.5
v 4.5 25 27.5
v 4.5 25 22.5
v 4.5 25 -22.5
v 4.5 25 -27.5
v 4.5 40 27.5
v 4.5 40 22.5
v 4.5 41 -22.5
v 4.5 41 -27.5
v 4.5 45 32.5
v 4.5 45 27.5
v 4.5 45 -27.5
v 4.5 45 -32.5
v 4.5 50 22.5
v 4.5 50 17.5
v 4.5 50 -17.5
v 4.5 50 -22.5
v 4.5 55 27.5
v 4.5 55 22.5
v 4.5 55 17.5
v 4.5 55 7.5
v 4.5 55 -7.5
v 4.5 55 -17.5
v 4.5 55 -22.5
v 4.5 55 -27.5
v 4.5 60 22.5
v 4.5 60 12.5
v 4.5 60 7.5
v 4.5 60 2.5
v 4.5 60 -2.5
v 4.5 60 -7.5
v 4.5 60 -12.5
v 4.5 60 -22.5
v 4.5 65 12.5
v 4.5 65 2.5
v 4.5 65 -2.5
v 4.5 65 -12.5
v -4.5 20 32.5
v -4.5 45 32.5
v 4.5 20 32.5
v 4.5 45 32.5
v -4.5 10 27.5
v -4.5 20 27.5
v -4.5 45 27.5
v -4.5 55 27.5
v 4.5 10 27.5
v 4.5 20 27.5
v 4.5 45 27.5
v 4.5 55 27.5
v -4.5 5 22.5
v -4.5 10 22.5
v -4.5 55 22.5
v -4.5 60 22.5
v 4.5 5 22.5
v 4.5 10 22.5
v 4.5 55 22.5
v 4.5 60 22.5
v -4.5 0 12.5
v -4.5 5 12.5
v -4.5 60 12.5
v -4.5 65 12.5
v 4.5 0 12.5
v 4.5 5 12.5
v 4.5 60 12.5
v 4.5 65 12.5
v -4.5 5 -7.5
v -4.5 10 -7.5
v -4.5 55 -7.5
v -4.5 60 -7.5
v 4.5 5 -7.5
v 4.5 10 -7.5
v 4.5 55 -7.5
v 4.5 60 -7.5
v -4.5 10 -17.5
v -4.5 15 -17.5
v -4.5 50 -17.5
v -4.5 55 -17.5
v 4.5 10 -17.5
v 4.5 15 -17.5
v 4.5 50 -17.5
v 4.5 55 -17.5
v -4.5 15 -22.5
v -4.5 25 -22.5
v -4.5 41 -22.5
v -4.5 50 -22.5
v 4.5 15 -22.5
v 4.5 25 -22.5
v 4.5 41 -22.5
v 4.5 50 -22.5
v -4.5 25 -27.5
v -4.5 41 -27.5
v 4.5 25 -27.5
v 4.5 41 -27.5
v -4.5 25 27.5
v -4.5 40 27.5
v 4.5 25 27.5
v 4.5 40 27.5
v -4.5 15 22.5
v -4.5 25 22.5
v -4.5 40 22.5
v -4.5 50 22.5
v 4.5 15 22.5
v 4.5 25 22.5
v 4.5 40 22.5
v 4.5 50 22.5
v -4.5 10 17.5
v -4.5 15 17.5
v -4.5 50 17.5
v -4.5 55 17.5
v 4.5 10 17.5
v 4.5 15 17.5
v 4.5 50 17.5
v 4.5 55 17.5
v -4.5 5 7.5
v -4.5 10 7.5
v -4.5 55 7.5
v -4.5 60 7.5
v 4.5 5 7.5
v 4.5 10 7.5
v 4.5 55 7.5
v 4.5 60 7.5
v -4.5 0 -12.5
v -4.5 5 -12.5
v -4.5 60 -12.5
v -4.5 65 -12.5
v 4.5 0 -12.5
v 4.5 5 -12.5
v 4.5 60 -12.5
v 4.5 65 -12.5
v -4.5 5 -22.5
v -4.5 10 -22.5
v -4.5 55 -22.5
v -4.5 60 -22.5
v 4.5 5 -22.5
v 4.5 10 -22.5
v 4.5 55 -22.5
v 4.5 60 -22.5
v -4.5 10 -27.5
v -4.5 20 -27.5
v -4.5 45 -27.5
v -4.5 55 -27.5
v 4.5 10 -27.5
v 4.5 20 -27.5
v 4.5 45 -27.5
v 4.5 55 -27.5
v -4.5 20 -32.5
v -4.5 45 -32.5
v 4.5 20 -32.5
v 4.5 45 -32.5
v -4.5 0 12.5
v 4.5 0 12.5
v -4.5 0 -12.5
v 4.5 0 -12.5
v -4.5 5 22.5
v 4.5 5 22.5
v -4.5 5 12.5
v 4.5 5 12.5
v -4.5 5 -12.5
v 4.5 5 -12.5
v -4.5 5 -22.5
v 4.5 5 -22.5
v -4.5 10 27.5
v 4.5 10 27.5
v -4.5 10 22.5
v 4.5 10 22.5
v -4.5 10 -22.5
v 4.5 10 -22.5
v -4.5 10 -27.5
v 4.5 10 -27.5
v -4.5 20 32.5
v 4.5 20 32.5
v -4.5 20 27.5
v 4.5 20 27.5
v -4.5 20 -27.5
v 4.5 20 -27.5
v -4.5 20 -32.5
v 4.5 20 -32.5
v -4.5 40 27.5
v 4.5 40 27.5
v -4.5 40 22.5
v 4.5 40 22.5
v -4.5 41 -22.5
v 4.5 41 -22.5
v -4.5 41 -27.5
v 4.5 41 -27.5
v -4.5 50 22.5
v 4.5 50 22.5
v -4.5 50 17.5
v 4.5 50 17.5
v -4.5 50 -17.5
v 4.5 50 -17.5
v -4.5 50 -22.5
v 4.5 50 -22.5
v -4.5 55 17.5
v 4.5 55 17.5
v -4.5 55 7.5
v 4.5 55 7.5
v -4.5 55 -7.5
v 4.5 55 -7.5
v -4.5 55 -17.5
v 4.5 55 -17.5
v -4.5 60 7.5
v 4.5 60 7.5
v -4.5 60 2.5
v 4.5 60 2.5
v -4.5 60 -2.5
v 4.5 60 -2.5
v -4.5 60 -7.5
v 4.5 60 -7.5
v -4.5 5 7.5
v 4.5 5 7.5
v -4.5 5 -7.5
v 4.5 5 -7.5
v -4.5 10 17.5
v 4.5 10 17.5
v -4.5 10 7.5
v 4.5 10 7.5
v -4.5 10 -7.5
v 4.5 10 -7.5
v -4.5 10 -17.5
v 4.5 10 -17.5
v -4.5 15 22.5
v 4.5 15 22.5
v -4.5 15 17.5
v 4.5 15 17.5
v -4.5 15 -17.5
v 4.5 15 -17.5
v -4.5 15 -22.5
v 4.5 15 -22.5
v -4.5 25 27.5
v 4.5 25 27.5
v -4.5 25 22.5
v 4.5 25 22.5
v -4.5 25 -22.5
v 4.5 25 -22.5
v -4.5 25 -27.5
v 4.5 25 -27.5
v -4.5 45 32.5
v 4.5 45 32.5
v -4.5 45 27.5
v 4.5 45 27.5
v -4.5 45 -27.5
v 4.5 45 -27.5
v -4.5 45 -32.5
v 4.5 45 -32.5
v -4.5 55 27.5
v 4.5 55 27.5
v -4.5 55 22.5
v 4.5 55 22.5
v -4.5 55 -22.5
v 4.5 55 -22.5
v -4.5 55 -27.5
v 4.5 55 -27.5
v -4.5 60 22.5
v 4.5 60 22.5
v -4.5 60 12.5
v 4.5 60 12.5
v -4.5 60 -12.5
v 4.5 60 -12.5
v -4.5 60 -22.5
v 4.5 60 -22.5
v -4.5 65 12.5
v 4.5 65 12.5
v -4.5 65 2.5
v 4.5 65 2.5
v -4.5 65 -2.5
v 4.5 65 -2.5
v -4.5 65 -12.5
v 4.5 65 -12.5

# faces
f 4/3/1 2/3/1 1/3/1
f 5/3/1 2/3/1 4/3/1
f 6/3/1 2/3/1 5/3/1
f 7/3/1 2/3/1 6/3/1
f 10/3/1 4/3/1 3/3/1
f 10/3/1 5/3/1 4/3/1
f 11/3/1 5/3/1 10/3/1
f 12/3/1 5/3/1 11/3/1
f 13/3/1 7/3/1 6/3/1
f 13/3/1 8/3/1 7/3/1
f 14/3/1 8/3/1 13/3/1
f 15/3/1 8/3/1 14/3/1
f 17/3/1 11/3/1 10/3/1
f 17/3/1 10/3/1 9/3/1
f 18/3/1 11/3/1 17/3/1
f 19/3/1 16/3/1 15/3/1
f 19/3/1 15/3/1 14/3/1
f 20/3/1 16/3/1 19/3/1
f 22/3/1 17/3/1 9/3/1
f 23/3/1 16/3/1 20/3/1
f 25/3/1 22/3/1 21/3/1
f 25/3/1 17/3/1 22/3/1
f 26/3/1 17/3/1 25/3/1
f 27/3/1 24/3/1 23/3/1
f 27/3/1 23/3/1 20/3/1
f 28/3/1 24/3/1 27/3/1
f 29/3/1 25/3/1 21/3/1
f 32/3/1 24/3/1 28/3/1
f 33/3/1 30/3/1 29/3/1
f 33/3/1 29/3/1 21/3/1
f 34/3/1 30/3/1 33/3/1
f 35/3/1 32/3/1 31/3/1
f 35/3/1 24/3/1 32/3/1
f 36/3/1 24/3/1 35/3/1
f 37/3/1 30/3/1 34/3/1
f 40/3/1 35/3/1 31/3/1
f 41/3/1 38/3/1 37/3/1
f 41/3/1 37/3/1 34/3/1
f 42/3/1 38/3/1 41/3/1
f 43/3/1 38/3/1 42/3/1
f 46/3/1 40/3/1 39/3/1
f 47/3/1 35/3/1 40/3/1
f 47/3/1 40/3/1 46/3/1
f 48/3/1 35/3/1 47/3/1
f 49/3/1 44/3/1 43/3/1
f 49/3/1 43/3/1 42/3/1
f 50/3/1 44/3/1 49/3/1
f 51/3/1 44/3/1 50/3/1
f 54/3/1 46/3/1 45/3/1
f 54/3/1 47/3/1 46/3/1
f 55/3/1 47/3/1 54/3/1
f 56/3/1 47/3/1 55/3/1
f 57/3/1 52/3/1 51/3/1
f 57/3/1 51/3/1 50/3/1
f 58/1/1 53/1/1 52/1/1
f 58/3/1 52/3/1 57/3/1
f 59/3/1 55/3/1 54/3/1
f 59/1/1 53/1/1 58/1/1
f 59/3/1 54/3/1 53/3/1
f 60/3/1 55/3/1 59/3/1
f 61/3/2 62/3/2 64/3/2
f 64/3/2 62/3/2 65/3/2
f 65/3/2 62/3/2 66/3/2
f 66/3/2 62/3/2 67/3/2
f 63/3/2 64/3/2 70/3/2
f 64/3/2 65/3/2 70/3/2
f 70/3/2 65/3/2 71/3/2
f 71/3/2 65/3/2 72/3/2
f 66/3/2 67/3/2 73/3/2
f 67/3/2 68/3/2 73/3/2
f 73/3/2 68/3/2 74/3/2
f 74/3/2 68/3/2 75/3/2
f 70/3/2 71/3/2 77/3/2
f 69/3/2 70/3/2 77/3/2
f 77/3/2 71/3/2 78/3/2
f 75/3/2 76/3/2 79/3/2
f 74/3/2 75/3/2 79/3/2
f 79/3/2 76/3/2 80/3/2
f 69/3/2 77/3/2 82/3/2
f 80/3/2 76/3/2 83/3/2
f 81/3/2 82/3/2 85/3/2
f 82/3/2 77/3/2 85/3/2
f 85/3/2 77/3/2 86/3/2
f 83/3/2 84/3/2 87/3/2
f 80/3/2 83/3/2 87/3/2
f 87/3/2 84/3/2 88/3/2
f 81/3/2 85/3/2 89/3/2
f 88/3/2 84/3/2 92/3/2
f 89/3/2 90/3/2 93/3/2
f 81/3/2 89/3/2 93/3/2
f 93/3/2 90/3/2 94/3/2
f 91/3/2 92/3/2 95/3/2
f 92/3/2 84/3/2 95/3/2
f 95/3/2 84/3/2 96/3/2
f 94/3/2 90/3/2 97/3/2
f 91/3/2 95/3/2 100/3/2
f 97/3/2 98/3/2 101/3/2
f 94/3/2 97/3/2 101/3/2
f 101/3/2 98/3/2 102/3/2
f 102/3/2 98/3/2 103/3/2
f 99/3/2 100/3/2 106/3/2
f 100/3/2 95/3/2 107/3/2
f 106/3/2 100/3/2 107/3/2
f 107/3/2 95/3/2 108/3/2
f 103/3/2 104/3/2 109/3/2
f 102/3/2 103/3/2 109/3/2
f 109/3/2 104/3/2 110/3/2
f 110/3/2 104/3/2 111/3/2
f 105/3/2 106/3/2 114/3/2
f 106/3/2 107/3/2 114/3/2
f 114/3/2 107/3/2 115/3/2
f 115/3/2 107/3/2 116/3/2
f 111/3/2 112/3/2 117/3/2
f 110/3/2 111/3/2 117/3/2
f 112/1/2 113/1/2 118/1/2
f 117/3/2 112/3/2 118/3/2
f 114/3/2 115/3/2 119/3/2
f 118/1/2 113/1/2 119/1/2
f 113/3/2 114/3/2 119/3/2
f 119/3/2 115/3/2 120/3/2
f 123/3/3 122/3/3 121/3/3
f 124/3/3 122/3/3 123/3/3
f 129/3/3 126/3/3 125/3/3
f 130/3/3 126/3/3 129/3/3
f 131/3/3 128/3/3 127/3/3
f 132/3/3 128/3/3 131/3/3
f 137/3/3 134/3/3 133/3/3
f 138/3/3 134/3/3 137/3/3
f 139/3/3 136/3/3 135/3/3
f 140/3/3 136/3/3 139/3/3
f 145/3/3 142/3/3 141/3/3
f 146/3/3 142/3/3 145/3/3
f 147/3/3 144/3/3 143/3/3
f 148/3/3 144/3/3 147/3/3
f 153/3/3 150/3/3 149/3/3
f 154/3/3 150/3/3 153/3/3
f 155/3/3 152/3/3 151/3/3
f 156/3/3 152/3/3 155/3/3
f 161/3/3 158/3/3 157/3/3
f 162/3/3 158/3/3 161/3/3
f 163/3/3 160/3/3 159/3/3
f 164/3/3 160/3/3 163/3/3
f 169/3/3 166/3/3 165/3/3
f 170/3/3 166/3/3 169/3/3
f 171/3/3 168/3/3 167/3/3
f 172/3/3 168/3/3 171/3/3
f 175/3/3 174/3/3 173/3/3
f 176/3/3 174/3/3 175/3/3
f 177/3/4 178/3/4 179/3/4
f 179/3/4 178/3/4 180/3/4
f 181/3/4 182/3/4 185/3/4
f 185/3/4 182/3/4 186/3/4
f 183/3/4 184/3/4 187/3/4
f 187/3/4 184/3/4 188/3/4
f 189/3/4 190/3/4 193/3/4
f 193/3/4 190/3/4 194/3/4
f 191/3/4 192/3/4 195/3/4
f 195/3/4 192/3/4 196/3/4
f 197/3/4 198/3/4 201/3/4
f 201/3/4 198/3/4 202/3/4
f 199/3/4 200/3/4 203/3/4
f 203/3/4 200/3/4 204/3/4
f 205/3/4 206/3/4 209/3/4
f 209/3/4 206/3/4 210/3/4
f 207/3/4 208/3/4 211/3/4
f 211/3/4 208/3/4 212/3/4
f 213/3/4 214/3/4 217/3/4
f 217/3/4 214/3/4 218/3/4
f 215/3/4 216/3/4 219/3/4
f 219/3/4 216/3/4 220/3/4
f 221/3/4 222/3/4 225/3/4
f 225/3/4 222/3/4 226/3/4
f 223/3/4 224/3/4 227/3/4
f 227/3/4 224/3/4 228/3/4
f 229/3/4 230/3/4 231/3/4
f 231/3/4 230/3/4 232/3/4
f 235/3/5 234/3/5 233/3/5
f 236/3/5 234/3/5 235/3/5
f 239/3/5 238/3/5 237/3/5
f 240/3/5 238/3/5 239/3/5
f 243/3/5 242/3/5 241/3/5
f 244/3/5 242/3/5 243/3/5
f 247/3/5 246/3/5 245/3/5
f 248/3/5 246/3/5 247/3/5
f 251/3/5 250/3/5 249/3/5
f 252/3/5 250/3/5 251/3/5
f 255/3/5 254/3/5 253/3/5
f 256/3/5 254/3/5 255/3/5
f 259/3/5 258/3/5 257/3/5
f 260/3/5 258/3/5 259/3/5
f 263/3/5 262/3/5 261/3/5
f 264/3/5 262/3/5 263/3/5
f 267/3/5 266/3/5 265/3/5
f 268/3/5 266/3/5 267/3/5
f 271/3/5 270/3/5 269/3/5
f 272/3/5 270/3/5 271/3/5
f 275/3/5 274/3/5 273/3/5
f 276/3/5 274/3/5 275/3/5
f 279/3/5 278/3/5 277/3/5
f 280/3/5 278/3/5 279/3/5
f 283/3/5 282/3/5 281/3/5
f 284/3/5 282/3/5 283/3/5
f 287/3/5 286/3/5 285/3/5
f 288/3/5 286/3/5 287/3/5
f 289/1/5 288/1/5 287/1/5
f 290/1/5 288/1/5 289/1/5
f 291/3/5 290/3/5 289/3/5
f 292/3/5 290/3/5 291/3/5
f 293/3/6 294/3/6 295/3/6
f 295/3/6 294/3/6 296/3/6
f 297/3/6 298/3/6 299/3/6
f 299/3/6 298/3/6 300/3/6
f 301/3/6 302/3/6 303/3/6
f 303/3/6 302/3/6 304/3/6
f 305/3/6 306/3/6 307/3/6
f 307/3/6 306/3/6 308/3/6
f 309/3/6 310/3/6 311/3/6
f 311/3/6 310/3/6 312/3/6
f 313/3/6 314/3/6 315/3/6
f 315/3/6 314/3/6 316/3/6
f 317/3/6 318/3/6 319/3/6
f 319/3/6 318/3/6 320/3/6
f 321/3/6 322/3/6 323/3/6
f 323/3/6 322/3/6 324/3/6
f 325/3/6 326/3/6 327/3/6
f 327/3/6 326/3/6 328/3/6
f 329/3/6 330/3/6 331/3/6
f 331/3/6 330/3/6 332/3/6
f 333/3/6 334/3/6 335/3/6
f 335/3/6 334/3/6 336/3/6
f 337/3/6 338/3/6 339/3/6
f 339/3/6 338/3/6 340/3/6
f 341/3/6 342/3/6 343/3/6
f 343/3/6 342/3/6 344/3/6
f 345/3/6 346/3/6 347/3/6
f 347/3/6 346/3/6 348/3/6
f 347/1/6 348/1/6 349/1/6
f 349/1/6 348/1/6 350/1/6
f 349/3/6 350/3/6 351/3/6
f 351/3/6 350/3/6 352/3/6
