# MagicaVoxel @ Ephtracy

# material
mtllib Letter.mtl
usemtl palette

# normals
vn -1 0 0
vn 1 0 0
vn 0 0 1
vn 0 0 -1
vn 0 -1 0
vn 0 1 0

# texcoords
vt 0.00976562 0.5
vt 0.369141 0.5

# verts
v -1 0 6
v -1 0 -6
v -1 1 5
v -1 1 -5
v -1 7 5
v -1 7 -5
v -1 8 6
v -1 8 -6
v 1 0 6
v 1 0 -6
v 1 1 5
v 1 1 -5
v 1 3 2
v 1 3 -2
v 1 4 3
v 1 4 2
v 1 4 -2
v 1 4 -3
v 1 5 4
v 1 5 3
v 1 5 2
v 1 5 -2
v 1 5 -3
v 1 5 -4
v 1 6 5
v 1 6 4
v 1 6 3
v 1 6 -3
v 1 6 -4
v 1 6 -5
v 1 7 4
v 1 7 -4
v 1 8 6
v 1 8 -6
v -1 0 6
v -1 8 6
v 1 0 6
v 1 8 6
v -1 0 -6
v -1 8 -6
v 1 0 -6
v 1 8 -6
v -1 0 6
v 1 0 6
v -1 0 -6
v 1 0 -6
v -1 8 6
v 1 8 6
v -1 8 -6
v 1 8 -6

# faces
f 3/2/1 2/2/1 1/2/1
f 4/2/1 2/2/1 3/2/1
f 5/2/1 3/2/1 1/2/1
f 5/1/1 4/1/1 3/1/1
f 6/2/1 2/2/1 4/2/1
f 6/1/1 4/1/1 5/1/1
f 7/2/1 5/2/1 1/2/1
f 7/2/1 6/2/1 5/2/1
f 8/2/1 2/2/1 6/2/1
f 8/2/1 6/2/1 7/2/1
f 9/2/2 10/2/2 11/2/2
f 11/2/2 10/2/2 12/2/2
f 11/1/2 12/1/2 13/1/2
f 13/1/2 12/1/2 14/1/2
f 11/1/2 13/1/2 15/1/2
f 13/2/2 14/2/2 16/2/2
f 15/1/2 13/1/2 16/1/2
f 14/1/2 12/1/2 17/1/2
f 16/2/2 14/2/2 17/2/2
f 17/1/2 12/1/2 18/1/2
f 11/1/2 15/1/2 19/1/2
f 15/2/2 16/2/2 20/2/2
f 19/1/2 15/1/2 20/1/2
f 16/1/2 17/1/2 21/1/2
f 20/2/2 16/2/2 21/2/2
f 17/2/2 18/2/2 22/2/2
f 21/1/2 17/1/2 22/1/2
f 18/1/2 12/1/2 23/1/2
f 22/2/2 18/2/2 23/2/2
f 23/1/2 12/1/2 24/1/2
f 9/2/2 11/2/2 25/2/2
f 11/1/2 19/1/2 25/1/2
f 19/2/2 20/2/2 26/2/2
f 25/1/2 19/1/2 26/1/2
f 21/1/2 22/1/2 27/1/2
f 26/2/2 20/2/2 27/2/2
f 20/1/2 21/1/2 27/1/2
f 22/1/2 23/1/2 27/1/2
f 23/2/2 24/2/2 28/2/2
f 27/1/2 23/1/2 28/1/2
f 24/1/2 12/1/2 29/1/2
f 28/2/2 24/2/2 29/2/2
f 12/2/2 10/2/2 30/2/2
f 29/1/2 12/1/2 30/1/2
f 27/1/2 28/1/2 31/1/2
f 28/1/2 29/1/2 31/1/2
f 26/1/2 27/1/2 31/1/2
f 25/2/2 26/2/2 31/2/2
f 29/2/2 30/2/2 32/2/2
f 31/1/2 29/1/2 32/1/2
f 25/2/2 31/2/2 33/2/2
f 9/2/2 25/2/2 33/2/2
f 31/2/2 32/2/2 33/2/2
f 30/2/2 10/2/2 34/2/2
f 33/2/2 32/2/2 34/2/2
f 32/2/2 30/2/2 34/2/2
f 37/2/3 36/2/3 35/2/3
f 38/2/3 36/2/3 37/2/3
f 39/2/4 40/2/4 41/2/4
f 41/2/4 40/2/4 42/2/4
f 45/2/5 44/2/5 43/2/5
f 46/2/5 44/2/5 45/2/5
f 47/2/6 48/2/6 49/2/6
f 49/2/6 48/2/6 50/2/6
